<svg xmlns="http://www.w3.org/2000/svg" width="720" height="420" viewBox="0 0 720 420" font-family="-apple-system, BlinkMacSystemFont, 'Segoe UI', 'Noto Sans KR', 'Apple SD Gothic Neo', 'Malgun Gothic', sans-serif">
  <rect width="720" height="420" fill="#fbfbf9"/>
  <text x="20.0" y="30.0" font-size="16" fill="#24292f" text-anchor="start" font-weight="600">입력 모양에 따른 걸린 시간 — 선형 축</text>
  <text x="20.0" y="50.0" font-size="11.5" fill="#6e7781" text-anchor="start" font-weight="400">n = 4,000 · 막대 높이가 곧 값의 비율이다. 대신 작은 값은 바닥에 붙는다</text>
  <line x1="78.0" y1="358.0" x2="696.0" y2="358.0" stroke="#dfe1e4" stroke-width="1" stroke-dasharray="none"/>
  <text x="68.0" y="362.0" font-size="10.5" fill="#6e7781" text-anchor="end" font-weight="400">0</text>
  <line x1="78.0" y1="263.3" x2="696.0" y2="263.3" stroke="#dfe1e4" stroke-width="1" stroke-dasharray="none"/>
  <text x="68.0" y="267.3" font-size="10.5" fill="#6e7781" text-anchor="end" font-weight="400">5</text>
  <line x1="78.0" y1="168.7" x2="696.0" y2="168.7" stroke="#dfe1e4" stroke-width="1" stroke-dasharray="none"/>
  <text x="68.0" y="172.7" font-size="10.5" fill="#6e7781" text-anchor="end" font-weight="400">10</text>
  <line x1="78.0" y1="74.0" x2="696.0" y2="74.0" stroke="#dfe1e4" stroke-width="1" stroke-dasharray="none"/>
  <text x="68.0" y="78.0" font-size="10.5" fill="#6e7781" text-anchor="end" font-weight="400">15</text>
  <line x1="78.0" y1="358.0" x2="696.0" y2="358.0" stroke="#6e7781" stroke-width="1" stroke-dasharray="none"/>
  <text x="20.0" y="60.0" font-size="11.5" fill="#6e7781" text-anchor="start" font-weight="400">시간 (ms)</text>
  <rect x="102.6" y="338.5" width="32.1" height="19.5" fill="#0072B2"/>
  <text x="118.6" y="333.5" font-size="9.5" fill="#6e7781" text-anchor="middle" font-weight="400">1.0</text>
  <rect x="137.7" y="298.6" width="32.1" height="59.4" fill="#E69F00"/>
  <text x="153.8" y="293.6" font-size="9.5" fill="#6e7781" text-anchor="middle" font-weight="400">3.1</text>
  <rect x="172.8" y="334.5" width="32.1" height="23.5" fill="#009E73"/>
  <text x="188.9" y="329.5" font-size="9.5" fill="#6e7781" text-anchor="middle" font-weight="400">1.2</text>
  <text x="155.2" y="376.0" font-size="11.5" fill="#24292f" text-anchor="middle" font-weight="400">무작위</text>
  <rect x="257.1" y="84.7" width="32.1" height="273.3" fill="#0072B2"/>
  <text x="273.1" y="79.7" font-size="9.5" fill="#6e7781" text-anchor="middle" font-weight="400">14</text>
  <rect x="292.2" y="354.7" width="32.1" height="3.3" fill="#E69F00"/>
  <text x="308.2" y="349.7" font-size="9.5" fill="#6e7781" text-anchor="middle" font-weight="400">0.174</text>
  <rect x="327.3" y="348.3" width="32.1" height="9.7" fill="#009E73"/>
  <text x="343.4" y="343.3" font-size="9.5" fill="#6e7781" text-anchor="middle" font-weight="400">0.51</text>
  <text x="309.8" y="376.0" font-size="11.5" fill="#24292f" text-anchor="middle" font-weight="400">정렬됨</text>
  <rect x="411.6" y="154.4" width="32.1" height="203.6" fill="#0072B2"/>
  <text x="427.6" y="149.4" font-size="9.5" fill="#6e7781" text-anchor="middle" font-weight="400">11</text>
  <rect x="446.7" y="348.4" width="32.1" height="9.6" fill="#E69F00"/>
  <text x="462.8" y="343.4" font-size="9.5" fill="#6e7781" text-anchor="middle" font-weight="400">0.505</text>
  <rect x="481.8" y="357.4" width="32.1" height="0.8" fill="#009E73"/>
  <text x="497.9" y="352.4" font-size="9.5" fill="#6e7781" text-anchor="middle" font-weight="400">0.032</text>
  <text x="464.2" y="376.0" font-size="11.5" fill="#24292f" text-anchor="middle" font-weight="400">역순</text>
  <rect x="566.1" y="332.5" width="32.1" height="25.5" fill="#0072B2"/>
  <text x="582.1" y="327.5" font-size="9.5" fill="#6e7781" text-anchor="middle" font-weight="400">1.3</text>
  <rect x="601.2" y="346.5" width="32.1" height="11.5" fill="#E69F00"/>
  <text x="617.2" y="341.5" font-size="9.5" fill="#6e7781" text-anchor="middle" font-weight="400">0.608</text>
  <rect x="636.3" y="348.0" width="32.1" height="10.0" fill="#009E73"/>
  <text x="652.4" y="343.0" font-size="9.5" fill="#6e7781" text-anchor="middle" font-weight="400">0.529</text>
  <text x="618.8" y="376.0" font-size="11.5" fill="#24292f" text-anchor="middle" font-weight="400">중복많음</text>
  <line x1="78.0" y1="390.0" x2="100.0" y2="390.0" stroke="#0072B2" stroke-width="2.4" stroke-dasharray="none"/>
  <circle cx="89.0" cy="390.0" r="3" fill="#0072B2"/>
  <text x="106.0" y="394.0" font-size="11.5" fill="#24292f" text-anchor="start" font-weight="400">quickSort</text>
  <line x1="183.4" y1="390.0" x2="205.4" y2="390.0" stroke="#E69F00" stroke-width="2.4" stroke-dasharray="7 4"/>
  <circle cx="194.4" cy="390.0" r="3" fill="#E69F00"/>
  <text x="211.4" y="394.0" font-size="11.5" fill="#24292f" text-anchor="start" font-weight="400">shellSort</text>
  <line x1="288.8" y1="390.0" x2="310.8" y2="390.0" stroke="#009E73" stroke-width="2.4" stroke-dasharray="2 3"/>
  <circle cx="299.8" cy="390.0" r="3" fill="#009E73"/>
  <text x="316.8" y="394.0" font-size="11.5" fill="#24292f" text-anchor="start" font-weight="400">patienceSort</text>
</svg>
